<svg xmlns="http://www.w3.org/2000/svg" viewBox="0 0 382.5 382.5"><defs><style>.cls-1{fill:#8e4d38;}.cls-2{fill:#733725;}.cls-3{fill:#fcfbfb;}.cls-4{fill:#212121;}.cls-5{fill:#5b5c5f;}.cls-6{fill:#feed58;}.cls-7{fill:#fcd735;}</style></defs><g id="Calque_2" data-name="Calque 2"><g id="Calque_1-2" data-name="Calque 1"><path class="cls-1" d="M113.63,199.35c6-11.91,14.68-21.53,25.15-29.57Q209,115.84,279.42,62.09C305.35,42.4,331.73,23.3,358,4c2.06-1.52,4.4-2.67,6.61-4H372l7.42,6a30.5,30.5,0,0,0-3.81,2.78Q264.23,120.12,152.88,231.53c-1,1-2,2.23-2.93,3.35a4.56,4.56,0,0,0-.64-.14Q132,217.27,114.64,199.8A3.33,3.33,0,0,0,113.63,199.35Z"/><path class="cls-2" d="M150,234.88c1-1.12,1.88-2.31,2.93-3.35Q264.24,120.12,375.65,8.77A30.5,30.5,0,0,1,379.46,6q1.52,3,3,6v5.23c-10,14.2-19.61,28.63-29.95,42.56q-66.69,89.84-133.74,179.39c-9.14,12.22-19.24,23.5-33.32,30.36-.33.16-.69.27-1,.41-7.36-7.4-14.76-14.77-22.09-22.19C158.18,243.48,154.08,239.16,150,234.88Z"/><path class="cls-3" d="M382.5,12q-1.53-3-3-6L372,0H382.5Z"/><path class="cls-4" d="M131.16,285.75c2.1,5.93,4.84,11.73,6.17,17.83,2.5,11.47-1.33,21.82-7.42,31.42-9.66,15.21-23.83,24.66-40.17,31.34-24.62,10.07-50.13,15.89-76.8,16.16a79.51,79.51,0,0,1-8.53-.78c.62-1.17,1-2.6,1.89-3.49q52.49-52.62,105.06-105.14c1-1,2-2.2,3-3.31,1.11,1,2.26,1.87,3.31,2.88C122.17,277,126.66,281.39,131.16,285.75Z"/><path class="cls-5" d="M114.34,269.78c-1,1.11-1.93,2.26-3,3.31Q58.82,325.65,6.3,378.23c-.9.89-1.27,2.32-1.89,3.49L0,380.89c3.17-3.8,6.22-7.31,9.1-10.95C20.4,355.7,23.7,339.29,22,321.59c-2-20.77,1.06-40.1,15.29-56.45,10.26-11.78,22.83-19.44,38.75-19,6.84.19,13.61,3.07,20.4,4.73L114.23,269Z"/><path class="cls-6" d="M114.23,269,96.4,250.89c2-8.23,3.32-16.66,6-24.63,3.11-9.18,7.42-17.95,11.2-26.9a3.09,3.09,0,0,1,1,.44q17.36,17.46,34.67,34.94-16.55,16.71-33.12,33.39A6.44,6.44,0,0,1,114.23,269Z"/><path class="cls-7" d="M114.23,269a6.44,6.44,0,0,0,2-.91q16.61-16.67,33.12-33.39a4.56,4.56,0,0,1,.64.14c4.13,4.28,8.23,8.6,12.41,12.84,7.33,7.42,14.73,14.79,22.09,22.19-16.67,8.94-34.72,13.27-53.29,15.84-4.5-4.36-9-8.74-13.51-13.09-1.05-1-2.2-1.92-3.31-2.88C114.3,269.53,114.27,269.28,114.23,269Z"/></g></g></svg>