<svg xmlns="http://www.w3.org/2000/svg" viewBox="0 0 323.9 320.73"><defs><style>.cls-1{fill:#fefefe;}.cls-2{fill:#f4f4f4;}.cls-3{fill:#72c4fd;}.cls-4{fill:#6e82b6;}.cls-5{fill:#9cd6fe;}.cls-6{fill:#9dd6fe;}.cls-7{fill:#6e83b6;}</style></defs><g id="Calque_2" data-name="Calque 2"><g id="Calque_1-2" data-name="Calque 1"><path class="cls-1" d="M249.48,100.49,255.17,97c-9.35-1.28-17.5-4.14-22-12.58-2.09-3.88-3.31-8.26-4.61-12.5-1-3.19-1.44-6.54-2.28-10.47l-3.8,15.95C211.53,68.3,200.75,59,189.71,50.06c-10.4-8.45-23-8.28-33.26.28-10.56,8.77-21,17.73-31.44,26.6L103.88,94.79V73.92h-47v4.31c0,17.59-.05,35.17.06,52.76a7,7,0,0,1-2.84,6c-9.42,7.8-18.71,15.76-28.06,23.64a8.16,8.16,0,0,0-2.88,9,7.67,7.67,0,0,0,7.34,5.92c1.33.14,2.66.38,4,.4,6.89.1,13.79.14,20.69.21q0,70.22,0,140.44c0,3,.71,4.11,3.92,4.05,11-.19,22-.08,32.93-.09h59.16q67.8,0,135.59.1c3.72,0,4.82-.82,4.81-4.7-.14-46.6-.08-93.21-.08-139.81l4.8-.11,19.86-.51c7.14-1.43,10.07-8.47,5.66-13.67a24.21,24.21,0,0,0-3-2.82Q284.17,129.79,249.48,100.49ZM58.68,44.2c-2.66-.52-4.53-.92-6.42-1.27-8.79-1.64-13.36-5.85-14.24-13-.79-6.39-1.67-12.76-2.51-19.14a175.53,175.53,0,0,0-2.74,17.86c-.52,5.48-2.92,9.49-8,11.56-3.44,1.38-7,2.34-10.58,3.48l-2.06.64a7,7,0,0,0,3,.89c12.15,2,17.23,5.83,17.77,16.7.27,5.37,1.52,10.69,2.32,16,1-4.84,1.58-9.63,2.11-14.43C38,57.15,39.2,51,46.08,48.31,49.88,46.82,53.84,45.76,58.68,44.2ZM250.6,0l-.8,0C249.44,3,249,5.87,248.71,8.8c-.67,6.09-1.62,12.06-8.55,14.35-3.57,1.18-7.26,2-10.85,3,2.52.48,5.09.87,7.61,1.48,8.06,2,9.93,4.1,11.12,12.27.59,4.06,1.3,8.11,2,12.16a57.79,57.79,0,0,0,2.42-12.41c.41-5.52,3.16-9,8.24-10.83,3-1.06,6.16-1.83,9.93-2.93-2.06-.4-3.5-.66-4.93-1-7.65-1.58-12.85-4.12-13.29-13.38C252.17,7.7,251.21,3.86,250.6,0ZM16.79,274.53c2.06-10.13,3.83-20.41,16.69-23.07-11.95-.91-14.52-9.58-16.87-18.53-1.55,9.76-5.31,17.24-16.61,18.7C13,254.12,14.51,264.37,16.79,274.53ZM291.86,69.17c-1.9,4.53-2.75,9.2-5.45,12.25S279.15,86,275.54,88c12,1.66,13.62,11.85,15.9,21.9,2.26-9.89,4-19.91,16.49-22.47C296.83,86.14,293.45,78.58,291.86,69.17Z"/><path class="cls-2" d="M92,320.63c-11,0-22-.1-32.93.09-3.21.06-3.92-1-3.92-4.05q.12-70.21,0-140.44c1.12,0,2.24-.11,3.36-.11H288.14c1.12,0,2.24.06,3.36.1,0,46.6-.06,93.21.08,139.81,0,3.88-1.09,4.71-4.81,4.7q-67.78-.19-135.59-.1c0-22.3.08-44.6,0-66.9-.08-16.22-12.92-29.38-28.62-29.64-17-.29-30.4,12.64-30.48,29.64C92,276,92,298.33,92,320.63Zm170.37-74c0-3,0-6.07,0-9.1V205.35H230l-9,0H188.8v32.19c0,3,0,6,0,9v32.22H221l9,.05h32.34Z"/><path class="cls-3" d="M291.5,176.22c-1.12,0-2.24-.1-3.36-.1H58.58c-1.12,0-2.24.07-3.36.11-6.9-.07-13.8-.11-20.69-.21-1.33,0-2.66-.26-4-.4,4.62-.06,9.25,0,13.86-.23A8.51,8.51,0,0,0,49,173.68c11.86-9.89,23.59-19.94,35.4-29.89,13.81-11.64,27.68-23.21,41.47-34.86,15.22-12.86,30.37-25.8,45.64-38.61a3.56,3.56,0,0,1,3.39-.16c9.93,8.3,19.74,16.74,29.57,25.16l-7.25,2.05c1.53.69,2.62,1.26,3.77,1.68,11.18,4,18.92,11,20.92,23.34.91,5.58,2.56,11,3.88,16.55l.64-.06,5.1-21.15c1.74,1.61,3.43,3.29,5.23,4.81,17.58,14.87,35.35,29.51,52.67,44.67,6.46,5.66,12.81,10,21.84,8.3a23.91,23.91,0,0,1,4.85.09l-19.86.51Z"/><path class="cls-4" d="M204.51,95.32c-9.83-8.42-19.64-16.86-29.57-25.16a3.56,3.56,0,0,0-3.39.16c-15.27,12.81-30.42,25.75-45.64,38.61-13.79,11.65-27.66,23.22-41.47,34.86-11.81,10-23.54,20-35.4,29.89a8.51,8.51,0,0,1-4.64,1.71c-4.61.26-9.24.17-13.86.23a7.67,7.67,0,0,1-7.34-5.92,8.16,8.16,0,0,1,2.88-9c9.35-7.88,18.64-15.84,28.06-23.64A7,7,0,0,0,57,131c-.11-17.59-.06-35.17-.06-52.76V73.92h47V94.79L125,76.94c10.48-8.87,20.88-17.83,31.44-26.6,10.3-8.56,22.86-8.73,33.26-.28,11,9,21.82,18.24,32.72,27.38C219.43,86.36,214.28,93.15,204.51,95.32Z"/><path class="cls-4" d="M92,320.63c0-22.3-.07-44.6,0-66.9.08-17,13.48-29.93,30.48-29.64,15.7.26,28.54,13.42,28.62,29.64.11,22.3,0,44.6,0,66.9Z"/><path class="cls-4" d="M316.16,175.6a23.91,23.91,0,0,0-4.85-.09c-9,1.68-15.38-2.64-21.84-8.3-17.32-15.16-35.09-29.8-52.67-44.67-1.8-1.52-3.49-3.2-5.23-4.81,2.76-9.07,8.67-14.88,17.91-17.24q34.68,29.31,69.35,58.62a24.21,24.21,0,0,1,3,2.82C326.23,167.13,323.3,174.17,316.16,175.6Z"/><path class="cls-5" d="M249.48,100.49c-9.24,2.36-15.15,8.17-17.91,17.24l-5.1,21.15-.64.06c-1.32-5.52-3-11-3.88-16.55C220,110,212.21,103.07,201,99.05c-1.15-.42-2.24-1-3.77-1.68l7.25-2.05c9.77-2.17,14.92-9,17.92-17.88l3.8-15.95c.84,3.93,1.31,7.28,2.28,10.47,1.3,4.24,2.52,8.62,4.61,12.5,4.55,8.44,12.7,11.3,22,12.58Z"/><path class="cls-6" d="M58.68,44.2c-4.84,1.56-8.8,2.62-12.6,4.11C39.2,51,38,57.15,37.33,63.52c-.53,4.8-1.16,9.59-2.11,14.43-.8-5.35-2-10.67-2.32-16C32.36,51,27.28,47.17,15.13,45.21a7,7,0,0,1-3-.89l2.06-.64c3.53-1.14,7.14-2.1,10.58-3.48,5.12-2.07,7.52-6.08,8-11.56a175.53,175.53,0,0,1,2.74-17.86c.84,6.38,1.72,12.75,2.51,19.14.88,7.16,5.45,11.37,14.24,13C54.15,43.28,56,43.68,58.68,44.2Z"/><path class="cls-6" d="M250.6,0c.61,3.86,1.57,7.7,1.76,11.58.44,9.26,5.64,11.8,13.29,13.38,1.43.3,2.87.56,4.93,1-3.77,1.1-6.9,1.87-9.93,2.93-5.08,1.78-7.83,5.31-8.24,10.83A57.79,57.79,0,0,1,250,52.09c-.65-4.05-1.36-8.1-2-12.16-1.19-8.17-3.06-10.31-11.12-12.27-2.52-.61-5.09-1-7.61-1.48,3.59-1,7.28-1.85,10.85-3,6.93-2.29,7.88-8.26,8.55-14.35C249,5.87,249.44,3,249.8,0Z"/><path class="cls-6" d="M16.79,274.53C14.51,264.37,13,254.12,0,251.63c11.3-1.46,15.06-8.94,16.61-18.7,2.35,8.95,4.92,17.62,16.87,18.53C20.62,254.12,18.85,264.4,16.79,274.53Z"/><path class="cls-6" d="M291.86,69.17c1.59,9.41,5,17,16.07,18.3-12.52,2.56-14.23,12.58-16.49,22.47-2.28-10-3.92-20.24-15.9-21.9,3.61-2.09,8.15-3.55,10.87-6.62S290,73.7,291.86,69.17Z"/><path class="cls-7" d="M262.38,237.51c0,3,0,6.07,0,9.1H230.05v32.2l-9-.05V246.54H188.79c0-3,0-6,0-9H221V205.39l9,0v32.16Z"/><path class="cls-3" d="M221,205.39v32.19H188.8V205.39Z"/><path class="cls-3" d="M262.38,237.51H230V205.35h32.36Z"/><path class="cls-3" d="M188.79,246.54H221v32.22H188.79Z"/><path class="cls-3" d="M230.05,278.81v-32.2h32.34v32.2Z"/></g></g></svg>