<svg xmlns="http://www.w3.org/2000/svg" viewBox="0 0 408.8 406.5"><defs><style>.cls-1{fill:#8ac823;}.cls-2{fill:#8fc134;}.cls-3{fill:#85be1f;}.cls-4{fill:#acd863;}.cls-5{fill:#a6d556;}.cls-6{fill:#b2da6e;}.cls-7{fill:#a0d24b;}.cls-8{fill:#98cc3d;}.cls-9{fill:#90c731;}.cls-10{fill:#8bc328;}.cls-11{fill:#9ccb4a;}.cls-12{fill:#4c5e66;}.cls-13{fill:#7eb415;}.cls-14{fill:#bec4d1;}.cls-15{fill:#f0f4fd;}.cls-16{fill:#819298;}</style></defs><g id="Calque_2" data-name="Calque 2"><g id="Calque_1-2" data-name="Calque 1"><path class="cls-1" d="M400.82,342.84a38.1,38.1,0,0,1,7.87,22.26c.25,6.06,0,12.15,0,18.22a4.68,4.68,0,0,1-.61-1.41,31.9,31.9,0,0,0-10-20.64c-10.65-10.28-23.6-13-37.91-9.19a43.84,43.84,0,0,0-20.59,12.14c-5.12-13.5-12.93-24.12-25.12-31.33s-25.1-10.55-38.82-7.67c-30.16,6.33-45.74,25.9-48.74,56.36l-2.94-1.26a73.41,73.41,0,0,0-27.29-6.38c-11.57-.26-22.56,2.66-32.08,9.81-7.51,5.65-13.47,12.35-15.24,22v.79h-3.2l-.8-.81c-1.66-2.05-3-4.44-5-6.1-11.78-9.89-25.07-13.45-40-8.44-3.29,1.11-4.44.18-5.39-2.82-6.5-20.64-28.31-35.66-52-33C27,357.06,15.45,365.24,7.38,378.48c-3,4.86-4.39,10.65-6.52,16l-.07,0,0-3.2,0-3.2L0,385.74V377c.93-3.36,1.4-6.93,2.88-10,3-6.35,6.63-12.44,10-18.64a27.38,27.38,0,0,0,3.2-2.19c7.64-6.86,16.5-11.25,26.74-12.19,24.19-2.23,44.55,11.09,52.52,34,.37,1.07.88,2.09,1.32,3.13,17-6.77,37.92-3.63,51.6,16.8.23-.75.45-1.33.6-1.92,5-19.25,19.69-30.55,39.59-30.55,2.39,0,4.79,0,7.18,0,10.5-.21,21-.73,30.69,4.64.15.08.48-.15.88-.29.09-.71.25-1.48.28-2.26a55,55,0,0,1,10.24-29.69C252.86,306,281,297.25,305.46,307.45c7,2.9,13.07,7.91,19.57,12L340.63,342c-.75.23-.59.23-.5.15.51-.42,1-.87,1.51-1.29,12.74-10.49,26.87-14.65,43-9.31C391.14,333.67,396.13,338.08,400.82,342.84Z"/><path class="cls-2" d="M149.31,406.5v-.79l259.36,0,.13.82Z"/><path class="cls-2" d="M145.31,405.69l.8.81H.8v-.84Z"/><path class="cls-3" d="M0,405.7v-4H.79v4Z"/><path class="cls-4" d="M.73,388.12c0,1.07,0,2.13,0,3.2H0v-3.2Z"/><path class="cls-5" d="M0,391.33H.77c0,1.07,0,2.13,0,3.2H0Z"/><path class="cls-6" d="M.73,388.12H0v-2.39Z"/><path class="cls-7" d="M0,394.52H.79l.07,0c0,.8-.07,1.61-.1,2.41l-.76,0Z"/><path class="cls-8" d="M0,396.92l.76,0c0,.53,0,1.07,0,1.6H0Z"/><path class="cls-9" d="M0,398.51H.77c0,.53,0,1.07,0,1.6H0Z"/><path class="cls-10" d="M0,400.11H.78c0,.54,0,1.07,0,1.6H0Z"/><path class="cls-11" d="M0,405.7H.8v.8Z"/><path class="cls-12" d="M325,319.41c-6.5-4.05-12.59-9.06-19.57-12-24.51-10.2-52.6-1.45-67.74,20.34a55,55,0,0,0-10.24,29.69c0,.78-.19,1.55-.28,2.26-.4.14-.73.37-.88.29-9.65-5.37-20.19-4.85-30.69-4.64-2.39.05-4.79,0-7.18,0-19.9,0-34.54,11.3-39.59,30.55-.15.59-.37,1.17-.6,1.92-13.68-20.43-34.61-23.57-51.6-16.8-.44-1-1-2.06-1.32-3.13-8-22.93-28.33-36.25-52.52-34-10.24.94-19.1,5.33-26.74,12.19a27.38,27.38,0,0,1-3.2,2.19c.43-1.36.74-2.77,1.3-4.07Q59.86,239,105.56,133.81c.26-.6.48-1.23.71-1.85a9.84,9.84,0,0,1,1.32,2.71c1.72,11.28,3.33,22.58,5,33.87,1,6.78,2.06,13.55,3.22,21.16l37.46-47.37,40.78,29.39c.11,8.82.25,17.65.33,26.48.05,4.66,0,9.32,0,14.54L219.18,198l16.41,52.82-10.44,23.29c2.07-.77,3.42-1.23,4.74-1.76,14.64-5.85,29.24-11.78,43.94-17.47a8.43,8.43,0,0,1,5.92.1c12.73,5.94,25.34,12.13,38,18.25a32.9,32.9,0,0,1,1.57,4.84c.81,4.78,1.45,9.6,2.11,14.41C322.64,301.46,323.82,310.43,325,319.41Z"/><path class="cls-13" d="M408.67,405.68l-259.36,0c1.77-9.61,7.73-16.31,15.24-22,9.52-7.15,20.51-10.07,32.08-9.81a73.41,73.41,0,0,1,27.29,6.38l2.94,1.26c3-30.46,18.58-50,48.74-56.36,13.72-2.88,26.71.51,38.82,7.67s20,17.83,25.12,31.33a43.84,43.84,0,0,1,20.59-12.14c14.31-3.78,27.26-1.09,37.91,9.19a31.9,31.9,0,0,1,10,20.64,4.68,4.68,0,0,0,.61,1.41Z"/><path class="cls-14" d="M194.05,171.72l-40.78-29.39L115.81,189.7c-1.16-7.61-2.21-14.38-3.22-21.16-1.67-11.29-3.28-22.59-5-33.87a9.84,9.84,0,0,0-1.32-2.71q9-21,18.07-41.95,16.49-38.1,33-76.19c1.79-4.13,3.61-8.25,5.51-12.34.28-.61,1.06-1,1.61-1.48.79,8.68,1.66,17.35,2.35,26,.67,8.44,1.08,16.89,1.72,25.33q1.91,25.09,3.94,50.19c.53,6.53,1.2,13,1.85,20h20.54v50.1Z"/><path class="cls-14" d="M317.73,273.24c-12.64-6.12-25.25-12.31-38-18.25a8.43,8.43,0,0,0-5.92-.1c-14.7,5.69-29.3,11.62-43.94,17.47-1.32.53-2.67,1-4.74,1.76l10.44-23.29a4.54,4.54,0,0,0,.73-.92c5.48-12,11-24,16.38-36.08,1.47-3.3,2.48-6.81,3.7-10.22,4-8.33,8-16.62,11.83-25,6.88-15,13.63-30.08,20.49-45.1.33-.71,1.27-1.14,1.92-1.7.37,35.3.74,70.6,1.11,106.21,6.38,0,12.35.07,18.32,0,2.43,0,3.44.71,3.79,3.33,1.43,10.61,3.15,21.19,4.77,31.78Z"/><path class="cls-15" d="M318.63,273.09c-1.62-10.59-3.34-21.17-4.77-31.78-.35-2.62-1.36-3.37-3.79-3.33-6,.1-11.94,0-18.32,0-.37-35.61-.74-70.91-1.11-106.21a5,5,0,0,1,1-.4c1.26,2,2.54,4,3.65,6.06,3,5.59,6,11.19,8.85,16.83,1.38,2.7,2.48,5.56,3.86,8.28q8,15.75,16.1,31.44c3.81,7.41,7.58,14.83,11.49,22.18,4.78,9,9.8,17.79,14.53,26.78,2.71,5.17,5,10.56,7.58,15.78,1.4,2.82,3.09,5.49,4.66,8.23-8-3.45-16.1-6.7-23.95-10.45-3.17-1.53-4.84-.85-6.87,1.64C327.41,263.27,323,268.13,318.63,273.09Z"/><path class="cls-16" d="M318.63,273.09c4.33-5,8.78-9.82,12.94-14.92,2-2.49,3.7-3.17,6.87-1.64,7.85,3.75,15.95,7,23.95,10.45q14,27.12,27.92,54.24c3.2,6.22,6.45,12.42,9.62,18.66a17.17,17.17,0,0,1,.89,3c-4.69-4.76-9.68-9.17-16.17-11.32-16.14-5.34-30.27-1.18-43,9.31-.51.42-1,.87-1.51,1.29-.09.08-.25.08.5-.15L325,319.41c-1.21-9-2.39-18-3.62-26.92-.66-4.81-1.3-9.63-2.11-14.41a32.9,32.9,0,0,0-1.57-4.84Z"/><path class="cls-15" d="M194.89,171.66v-50.1H174.35c-.65-7-1.32-13.47-1.85-20q-2-25.09-3.94-50.19c-.64-8.44-1.05-16.89-1.72-25.33-.69-8.69-1.56-17.36-2.35-26,1,1.06,2.39,2,3,3.21,3,6.51,5.92,13.09,8.78,19.69,2.55,5.88,4.94,11.84,7.49,17.72s5.35,12,8,18,5.29,12.24,8,18.31c2.88,6.33,6,12.56,8.82,18.9,2.69,6,5.19,12,7.81,18,2.52,5.76,5.1,11.49,7.64,17.24,1.43,3.22,2.84,6.44,4.27,9.65q-14.12,13.4-28.25,26.78C198.46,169,196.62,170.27,194.89,171.66Z"/><path class="cls-16" d="M194.89,171.66c1.73-1.39,3.57-2.66,5.19-4.18q14.16-13.35,28.25-26.78,14,31.45,28.07,62.91c-1.22,3.41-2.23,6.92-3.7,10.22-5.37,12.07-10.9,24.06-16.38,36.08a4.54,4.54,0,0,1-.73.92L219.18,198l-24.79,14.73c0-5.22,0-9.88,0-14.54-.08-8.83-.22-17.66-.33-26.48Z"/><path class="cls-13" d="M.79,401.7c0-.53,0-1.06,0-1.6s0-1.07,0-1.6,0-1.07,0-1.6c0-.8.06-1.61.1-2.41,2.13-5.36,3.56-11.15,6.52-16,8.07-13.24,19.61-21.42,35.53-23.19,23.7-2.62,45.51,12.4,52,33,1,3,2.1,3.93,5.39,2.82,14.9-5,28.19-1.45,40,8.44,2,1.66,3.37,4.05,5,6.1L.8,405.66C.8,404.34.8,403,.79,401.7Z"/></g></g></svg>