<svg xmlns="http://www.w3.org/2000/svg" viewBox="0 0 348.94 383.32"><defs><style>.cls-1{fill:#e1e1e1;}.cls-2{fill:#cdcdcd;}.cls-3{fill:#c7eefd;}.cls-4{fill:#80d161;}.cls-5{fill:#98e5fb;}.cls-6{fill:#68c944;}.cls-7{fill:#fee4c0;}.cls-8{fill:#8c9aa6;}.cls-9{fill:#febb84;}.cls-10{fill:#fdd0a2;}.cls-11{fill:#798b97;}.cls-12{fill:#febb85;}.cls-13{fill:#fdd1a4;}.cls-14{fill:#f8f6f6;}.cls-15{fill:#8d9aa6;}</style></defs><g id="Calque_2" data-name="Calque 2"><g id="Calque_1-2" data-name="Calque 1"><path class="cls-1" d="M155,383.32H24.71a29.09,29.09,0,0,0-3-1.38C7.82,377.22,0,366.41,0,351.84v-53.5Q0,164.2,0,30.06C0,14.35,13.64.06,28.93,0Q109.2-.06,189.47,0c.69,1.29,1.38,2.58,2.06,3.87l14.4,27.51c-54.5,0-109,.11-163.5-.08A13.37,13.37,0,0,0,29.05,44.57c.29,49.75.15,99.5.15,149.26,0,48.5-.05,97,.13,145.51,0,2.69,1.84,5.38,2.82,8.06,2.42,4,6.31,4.43,10.41,4.43H155.42c10.84,0,21.67.08,32.51.12-4.29,5.14-8.12,10.77-13,15.31C168.73,373.07,161.69,378,155,383.32Z"/><path class="cls-2" d="M155,383.32c6.69-5.32,13.73-10.25,19.95-16.06,4.86-4.54,8.69-10.17,13-15.31,1-.05,2-.15,3-.15q57,0,114.09.06a48,48,0,0,0,5.83-.69l5.92-3.71c1-2.56,2.87-5.11,2.87-7.67q.22-148.16.12-296.32c0-7-4.92-12-12-12q-50.52,0-101,0l-.75-.09L191.53,3.91c-.68-1.29-1.37-2.58-2.06-3.87C233,0,276.57,0,320.11.05c15,0,28.78,13.82,28.79,28.89q.09,162.62,0,325.25a26.69,26.69,0,0,1-11.5,22.43c-4,2.83-8.74,4.5-13.14,6.7Z"/><path class="cls-3" d="M205.93,31.42l.75.09c2.46,6.63,5.11,13.21,7.32,19.93,2.28,7,4.11,14.06,6.14,21.1l-11.9-5.2a18.81,18.81,0,0,0-2.33-1.07A88.41,88.41,0,0,0,172,62.21c-14.82,1.3-28.43,6.05-38.47,17.49-4.35,5-9,7.44-15.35,8.85-15.41,3.44-25.22,13.19-28,29a138.78,138.78,0,0,0-1.63,20.8c-.28,11.45-.15,22.92-.2,34.38v.26c-4.36,0-8.73-.12-13.09,0a8,8,0,0,0-8,7.81c-.15,2.74.12,5.5-.1,8.22-1,12.18,13.13,23.49,22.66,22.9,3.89,13.41,9.85,25.8,18.76,36.61,4.5,5.46,9.46,10.53,14.22,15.77L118.31,274l-4.56,9.77c-20.6,2.56-38.09,11.69-53.37,25.4-12,10.79-21,23.83-28.23,38.2-1-2.68-2.81-5.37-2.82-8.06-.18-48.5-.13-97-.13-145.51,0-49.76.14-99.51-.15-149.26A13.37,13.37,0,0,1,42.43,31.34C96.92,31.53,151.43,31.43,205.93,31.42Z"/><path class="cls-4" d="M32.15,347.4C39.35,333,48.35,320,60.38,309.2c15.28-13.71,32.77-22.84,53.37-25.4,5.38,9.56,13.34,16.3,23.14,21,17.06,8.16,35,9.25,53.3,6.13,13.05-2.22,25.22-6.8,35.14-16.07a3.69,3.69,0,0,1,.58,0c1,.27,1.91.52,2.86.81,8,2.47,16.45,4.16,24.09,7.57,19.64,8.79,34.78,23.09,45.86,41.39,3.08,5.09,6.4,7.44,12.11,6.5a48,48,0,0,1-5.83.69q-57,0-114.09-.06c-1,0-2,.1-3,.15-10.84,0-21.67-.11-32.51-.12H42.56C38.46,351.83,34.57,351.35,32.15,347.4Z"/><path class="cls-5" d="M220.14,72.54c-2-7-3.86-14.14-6.14-21.1-2.21-6.72-4.86-13.3-7.32-19.93q50.52,0,101,0c7.11,0,12,5,12,12q0,148.17-.12,296.32c0,2.56-1.87,5.11-2.87,7.67l-3.18-5.88c-11.45-21.09-27.34-37.72-48.84-48.75-9.38-4.81-19.4-7.49-29.73-9.19l-9-19.29a14.09,14.09,0,0,1,1.53-2c9.65-9,17.92-19,23.7-30.9,3.08-6.32,5.29-13.07,7.89-19.62,7.51-.2,13-4.09,17.81-9.47,5.31-6,4.9-13.22,4.71-20.44-.13-5.42-3.41-8.84-8.78-9-4.09-.08-8.19,0-12.28.06a1.13,1.13,0,0,0-.68-.08l0-.22c0-12.83,0-25.67-.07-38.51a64.17,64.17,0,0,0-5.83-26C247,92.29,235,81,220.14,72.54Z"/><path class="cls-6" d="M235,283.64c10.33,1.7,20.35,4.38,29.73,9.19,21.5,11,37.39,27.66,48.84,48.75l3.18,5.88-5.92,3.71c-5.71.94-9-1.41-12.11-6.5-11.08-18.3-26.22-32.6-45.86-41.39-7.64-3.41-16-5.1-24.09-7.57-1-.29-1.91-.54-2.86-.81Z"/><path class="cls-7" d="M122.84,264.27c-4.76-5.24-9.72-10.31-14.22-15.77-8.91-10.81-14.87-23.2-18.76-36.61q-.75-19.47-1.49-38.95v-.26c11.94-.55,19.87-6.83,24.46-17.52,2.35-5.45,4.22-11.1,6.3-16.66q41.55,0,83.09,0c5.82,0,10.52,2.27,12.86,7.88,2.09,5,3.91,10.21,5.72,15.37,3.5,9.94,8.53,18.5,19,22.72a5.49,5.49,0,0,1,2.67,4.1c.23,9.09.95,18.3-.09,27.28-2.12,18.36-10.58,34.07-22.76,47.78-4.1,4.63-8.6,8.92-12.91,13.37-11.28,6.14-23,10.28-36.17,9-15.74-1.48-29.25-8.17-41.65-17.56C126.91,267,124.85,265.68,122.84,264.27Zm22.46-31.41c5.22,13.59,16.35,20.71,29.18,20.62,11.85-.09,22.81-5,29.15-20.62a83.23,83.23,0,0,0,2.18-9.38c.51-4.2-2.34-7.09-6.66-7.1q-24.68,0-49.36,0c-4.32,0-7.17,2.9-6.67,7.1A85.47,85.47,0,0,0,145.3,232.86Zm21.8-51.18c-1.14-2-1.71-3.72-2.87-4.85-8.83-8.7-24.34-8.85-33.32-.45-3.33,3.12-3.86,6.09-1.56,8.79s5.76,2.91,9.21,0c3.86-3.27,8.2-4.2,12.88-2.5,2.16.79,3.89,2.79,6.06,3.5a9.85,9.85,0,0,0,6.25.12C165.2,185.67,165.94,183.37,167.1,181.68ZM202.8,170c-6.89.34-12.88,2.37-17.61,7.35-2.29,2.42-2.5,5.41-.6,7.72,2.08,2.51,5.09,2.88,8,1,8.94-5.83,11.19-5.84,19.77-.09,2.94,2,5.89,1.68,8-.79s1.82-5.43-.64-8C215.06,172.35,209.1,170.56,202.8,170Z"/><path class="cls-8" d="M119.12,138.5c-2.08,5.56-4,11.21-6.3,16.66-4.59,10.69-12.52,17-24.46,17.52,0-11.46-.08-22.93.2-34.38a138.78,138.78,0,0,1,1.63-20.8c2.78-15.76,12.59-25.51,28-28.95,6.34-1.41,11-3.89,15.35-8.85,10-11.44,23.65-16.19,38.47-17.49a88.41,88.41,0,0,1,33.9,4.06,18.81,18.81,0,0,1,2.33,1.07l-.87.53a3.88,3.88,0,0,0,.53.47,79.37,79.37,0,0,1,19,16.57c9.21,11.24,14.71,24,15.56,38.43.83,14,.61,28.12.84,42.18-2.49-3.67-5.52-7.09-7.36-11.06-3.22-7-5.39-14.47-8.61-21.46-2.39-5.2-6.52-8.74-12.82-8.74-26.93,0-53.85,0-80.78.07a13.16,13.16,0,0,0-5.35,1.3C123,128.18,120.73,133.14,119.12,138.5Z"/><path class="cls-9" d="M122.84,264.27c2,1.41,4.07,2.75,6,4.23,12.4,9.39,25.91,16.08,41.65,17.56,13.14,1.24,24.89-2.9,36.17-9a21.61,21.61,0,0,0,3.31-1.51c5.37-3.68,10.67-7.43,16-11.16l9,19.29-9.09,11.26a3.69,3.69,0,0,0-.58,0c-1.23-2.85-2.61-5.64-3.66-8.56-1-2.67-1.94-2.9-4.23-1.11a65.81,65.81,0,0,1-40.25,14.41c-20.11.43-37.5-6.2-52.91-18.62-2.34-1.89-4-4.62-6-7Z"/><path class="cls-10" d="M118.31,274c2,2.33,3.63,5.06,6,7,15.41,12.42,32.8,19,52.91,18.62a65.81,65.81,0,0,0,40.25-14.41c2.29-1.79,3.27-1.56,4.23,1.11,1.05,2.92,2.43,5.71,3.66,8.56-9.92,9.27-22.09,13.85-35.14,16.07-18.28,3.12-36.24,2-53.3-6.13-9.8-4.7-17.76-11.44-23.14-21Z"/><path class="cls-11" d="M243.32,165.52c-.23-14.06,0-28.15-.84-42.18-.85-14.4-6.35-27.19-15.56-38.43a79.37,79.37,0,0,0-19-16.57,3.88,3.88,0,0,1-.53-.47l.87-.53,11.9,5.2C235,81,247,92.29,254,108.19a64.17,64.17,0,0,1,5.83,26c0,12.84,0,25.68.07,38.51C253.71,171.87,247.78,170.39,243.32,165.52Z"/><path class="cls-12" d="M88.37,172.94q.75,19.47,1.49,38.95c-9.53.59-23.63-10.72-22.66-22.9.22-2.72,0-5.48.1-8.22a8,8,0,0,1,8-7.81C79.64,172.82,84,172.93,88.37,172.94Z"/><path class="cls-10" d="M243.32,165.52c4.46,4.87,10.39,6.35,16.6,7.19l0,.22c0,7.94-.07,15.87,0,23.8a15.5,15.5,0,0,0,.7,3.15l-1.45,11.93c-2.6,6.55-4.81,13.3-7.89,19.62-5.78,11.85-14.05,21.93-23.7,30.9a14.09,14.09,0,0,0-1.53,2c-5.33,3.73-10.63,7.48-16,11.16a21.61,21.61,0,0,1-3.31,1.51c4.31-4.45,8.81-8.74,12.91-13.37,12.18-13.71,20.64-29.42,22.76-47.78,1-9,.32-18.19.09-27.28a5.49,5.49,0,0,0-2.67-4.1c-10.45-4.22-15.48-12.78-19-22.72-1.81-5.16-3.63-10.32-5.72-15.37-2.34-5.61-7-7.87-12.86-7.88q-41.55-.06-83.09,0c1.61-5.36,3.87-10.32,9.28-12.87a13.16,13.16,0,0,1,5.35-1.3c26.93-.08,53.85,0,80.78-.07,6.3,0,10.43,3.54,12.82,8.74,3.22,7,5.39,14.47,8.61,21.46C237.8,158.43,240.83,161.85,243.32,165.52Z"/><path class="cls-12" d="M259.11,211.81q.72-6,1.45-11.93,0-13.42,0-26.87c4.09,0,8.19-.14,12.28-.06,5.37.11,8.65,3.53,8.78,9,.19,7.22.6,14.47-4.71,20.44C272.14,207.72,266.62,211.61,259.11,211.81Z"/><path class="cls-13" d="M260.57,173q0,13.44,0,26.87a15.5,15.5,0,0,1-.7-3.15c0-7.93,0-15.86,0-23.8A1.13,1.13,0,0,1,260.57,173Z"/><path class="cls-1" d="M145.3,232.86a85.47,85.47,0,0,1-2.18-9.38c-.5-4.2,2.35-7.09,6.67-7.1q24.68,0,49.36,0c4.32,0,7.17,2.9,6.66,7.1a83.23,83.23,0,0,1-2.18,9.38,46.72,46.72,0,0,0-5.86-.75q-23.29-.09-46.61,0A47.2,47.2,0,0,0,145.3,232.86Z"/><path class="cls-14" d="M145.3,232.86a47.2,47.2,0,0,1,5.86-.75q23.31-.09,46.61,0a46.72,46.72,0,0,1,5.86.75c-6.34,15.57-17.3,20.53-29.15,20.62C161.65,253.57,150.52,246.45,145.3,232.86Z"/><path class="cls-15" d="M167.1,181.68c-1.16,1.69-1.9,4-3.35,4.59a9.85,9.85,0,0,1-6.25-.12c-2.17-.71-3.9-2.71-6.06-3.5-4.68-1.7-9-.77-12.88,2.5-3.45,2.93-6.8,2.86-9.21,0s-1.77-5.67,1.56-8.79c9-8.4,24.49-8.25,33.32.45C165.39,178,166,179.69,167.1,181.68Z"/><path class="cls-15" d="M202.8,170c6.3.53,12.26,2.32,16.94,7.19,2.46,2.56,2.69,5.62.64,8s-5.08,2.75-8,.79c-8.58-5.75-10.83-5.74-19.77.09-2.91,1.89-5.92,1.52-8-1-1.9-2.31-1.69-5.3.6-7.72C189.92,172.4,195.91,170.37,202.8,170Z"/></g></g></svg>